<?xml version="1.0"?>
<svg xmlns="http://www.w3.org/2000/svg" xmlns:xlink="http://www.w3.org/1999/xlink" data-noselect="" viewBox="0 0 800 600" width="1600" height="1200" preserveAspectRatio="none" version="1.1"><defs><filter id="filter_shadow_shape_REVjnq3XJs" width="1000%" height="1000%"><feGaussianBlur in="SourceAlpha" stdDeviation="0"/> <feOffset dx="0" dy="0" result="offsetblur"/><feComponentTransfer><feFuncA type="linear" slope="1"/></feComponentTransfer><feMerge><feMergeNode/><feMergeNode in="SourceGraphic"/></feMerge></filter></defs> <g id="background" data-noselect=""><rect fill="rgb(6, 40, 51)" width="800" height="600" data-noselect=""/> <!----></g> <g id="shape_vw6kVo9a2z" transform="translate(920.4999890136701,303.52245197653633) rotate(0,85,85) scale(1,1)" filter="" style="cursor: move; opacity: 1;"><g><svg xmlns="http://www.w3.org/2000/svg" xmlns:xlink="http://www.w3.org/1999/xlink" version="1.1" id="&#x56FE;&#x5C42;_1" x="0px" y="0px" width="170" height="165.55895844936566" viewBox="63.399986267089844 53.29999923706055 164.5999755859375 160.3000030517578" style="enable-background:new 0 0 283.5 283.5;" xml:space="preserve" class="style-removed" preserveAspectRatio="none" data-parent="shape_vw6kVo9a2z">

<g>
	<path d="M189.9,80.6c-6.9-16.5-23-27.3-40.8-27.3c-21.3,0-39.3,15.1-43.5,35.8h-0.3c-23.1,0-41.9,19-41.9,42.4   c0,17.9,11.1,33.9,27.8,39.9v-10c-11.2-5.5-18.5-17-18.5-29.9c0-18.3,14.6-33.1,32.6-33.1c1.2,0,2.4,0.1,3.7,0.2l4.6,0.5l0.5-4.6   c1.9-18.2,16.9-31.9,34.9-31.9c14.9,0,28.2,9.6,33.1,23.8l1,2.7l2.9,0.3c18.6,2.3,32.7,18.4,32.7,37.4c0,15.6-9.4,29.5-23.5,35.1   v9.8h0.1l0.7-0.2c19.1-6.3,32-24.3,32-44.7C228,104,211.8,84.7,189.9,80.6z" fill="#1FBBDE" stroke-width="0"/>
</g>
<path d="M163.7,137.4c-11,0-19.9,8.9-19.9,19.9c0,11,8.9,19.9,19.9,19.9c11,0,19.9-8.9,19.9-19.9  C183.6,146.3,174.7,137.4,163.7,137.4z M163.7,169.7c-6.9,0-12.5-5.6-12.5-12.5c0-6.9,5.6-12.5,12.5-12.5c6.9,0,12.5,5.6,12.5,12.5  C176.2,164,170.6,169.7,163.7,169.7z" fill="#1FBBDE" stroke-width="0"/>
<path d="M113.7,115.2c-11,0-19.8,8.9-19.8,19.8c0,11,8.9,19.8,19.8,19.8c11,0,19.8-8.9,19.8-19.8  C133.6,124.1,124.7,115.2,113.7,115.2z M113.7,147.4c-6.9,0-12.5-5.6-12.5-12.5s5.6-12.5,12.5-12.5c6.9,0,12.5,5.6,12.5,12.5  S120.6,147.4,113.7,147.4z" fill="#1FBBDE" stroke-width="0"/>
<path d="M151.2,81.6c-9.1,0-16.5,7.4-16.5,16.5s7.4,16.5,16.5,16.5c9.1,0,16.5-7.4,16.5-16.5S160.3,81.6,151.2,81.6z   M151.2,108.4c-5.7,0-10.4-4.7-10.4-10.4c0-5.7,4.7-10.4,10.4-10.4s10.4,4.7,10.4,10.4C161.6,103.7,156.9,108.4,151.2,108.4z" fill="#1FBBDE" stroke-width="0"/>
<path d="M139,180.6c-9.1,0-16.5,7.4-16.5,16.5c0,9.1,7.4,16.5,16.5,16.5c9.1,0,16.5-7.4,16.5-16.5  C155.5,187.9,148.1,180.6,139,180.6z M139,207.3c-5.7,0-10.4-4.7-10.4-10.4s4.7-10.4,10.4-10.4s10.4,4.7,10.4,10.4  S144.7,207.3,139,207.3z" fill="#1FBBDE" stroke-width="0"/>
<rect x="122.8" y="146.1" transform="matrix(0.9856 0.1693 -0.1693 0.9856 27.2203 -21.1024)" width="29.2" height="6" fill="#1FBBDE" stroke-width="0"/>
<rect x="117.7" y="110.3" transform="matrix(0.8135 -0.5815 0.5815 0.8135 -41.7875 96.3337)" width="23.2" height="6" fill="#1FBBDE" stroke-width="0"/>
<rect x="144.7" y="178.3" transform="matrix(-0.5948 0.8038 -0.8038 -0.5948 390.9048 165.6619)" width="18" height="6" fill="#1FBBDE" stroke-width="0"/>
</svg></g></g><g id="shape_REVjnq3XJs" transform="translate(41.80769250754554,175.68112174615968) rotate(0,104.65487127674692,112.32990097391806) scale(1,1)" filter="url(#filter_shadow_shape_REVjnq3XJs)" style="cursor: move; opacity: 1;"><g><svg xmlns="http://www.w3.org/2000/svg" xmlns:xlink="http://www.w3.org/1999/xlink" version="1.1" id="&#x56FE;&#x5C42;_1" x="0px" y="0px" width="209.30974255349383" height="224.65980194783612" viewBox="46.70000076293945 42.70000076293945 106.69999694824219 114.52500915527344" style="enable-background:new 0 0 200 200;" xml:space="preserve" class="style-removed" preserveAspectRatio="none" data-parent="shape_REVjnq3XJs">

<g>
	<path d="M89.9,45.4L54.3,65.5c-4.7,2.7-7.6,7.6-7.6,12.9v43.2c0,5.3,2.9,10.2,7.6,12.9l35.6,20.1   c6.3,3.5,14,3.5,20.3,0l35.6-20.1c4.7-2.7,7.6-7.6,7.6-12.9V78.4c0-5.3-2.9-10.2-7.6-12.9l-35.6-20.1   C103.9,41.8,96.1,41.8,89.9,45.4L89.9,45.4z M105.5,49.7l38.9,22c1.7,1,2.8,2.8,2.8,4.7v47.1c0,1.9-1.1,3.7-2.8,4.7l-38.9,22   c-3.4,1.9-7.6,1.9-11.1,0l-38.9-22c-1.7-1-2.8-2.8-2.8-4.7V76.4c0-1.9,1.1-3.7,2.8-4.7l38.9-22C97.9,47.8,102.1,47.8,105.5,49.7   L105.5,49.7z M105.1,54" fill="#1f86e6" stroke-width="0"/>
	<g>
		<rect x="114.3" y="126.3" width="3.2" height="3.2" fill="#1f86e6" stroke-width="0"/>
		<rect x="114.3" y="119.3" width="3.2" height="3.2" fill="#1f86e6" stroke-width="0"/>
		<rect x="118.2" y="129.7" width="3.2" height="3.2" fill="#1f86e6" stroke-width="0"/>
		<rect x="118.2" y="122.8" width="3.2" height="3.2" fill="#1f86e6" stroke-width="0"/>
		<rect x="122" y="126.3" width="3.2" height="3.2" fill="#1f86e6" stroke-width="0"/>
		<rect x="122" y="119.3" width="3.2" height="3.2" fill="#1f86e6" stroke-width="0"/>
		<path d="M97.6,97.7V64.9H84v32.8c2.1,0.8,4.4,1.2,6.8,1.2C93.2,98.9,95.5,98.5,97.6,97.7z" fill="#1f86e6" stroke-width="0"/>
		<path d="M110.5,119.3H97.6v-17.5c-2.2,0.6-4.4,1-6.8,1c-2.4,0-4.6-0.3-6.8-1v31.1h26.5h3.2v-3.2h-3.2V126h3.2v-3.2    h-3.2V119.3z" fill="#1f86e6" stroke-width="0"/>
	</g>
</g>
</svg></g></g><g id="shape_3y89Q25cMx" transform="translate(207.1993049503743,142.90478682698676) rotate(0,312.9430700199092,185.64) scale(1,1)" filter="" style="cursor: move; opacity: 1;"><g><svg xmlns="http://www.w3.org/2000/svg" xmlns:xlink="http://www.w3.org/1999/xlink" version="1.1" width="731.8861400398184" height="371.28" viewBox="0 0 731.8861400398184 371.28" data-parent="shape_3y89Q25cMx"><g data-width="336" transform="translate(144.94307001990921, 0)"><path d="M26.23-21.73L26.23-21.73L23.48-19.03Q22.21-20.09 19.85-21.81Q17.49-23.53 15.37-24.96L15.37-24.96Q12.93-20.35 4.82-16.43L4.82-16.43Q4.45-17.12 3.74-17.89Q3.02-18.66 2.33-19.13L2.33-19.13Q7.31-21.15 9.78-23.61Q12.24-26.08 12.98-28.51L12.98-28.51L2.81-28.51L2.81-31.75L13.67-31.75Q13.78-32.70 13.78-33.66L13.78-33.66L13.78-36.73L9.33-36.73Q7.79-33.97 5.99-32.01L5.99-32.01Q5.41-32.44 4.48-32.99Q3.55-33.55 2.81-33.92L2.81-33.92Q6.94-38.16 8.80-44.47L8.80-44.47L12.35-43.78Q11.77-41.82 10.92-39.91L10.92-39.91L25.33-39.91L25.33-36.73L17.54-36.73L17.54-33.66Q17.54-32.70 17.44-31.75L17.44-31.75L26.66-31.75L26.66-28.51L16.85-28.51Q16.80-28.14 16.64-27.82L16.64-27.82Q16.64-27.72 16.59-27.61L16.59-27.61Q17.70-27.03 19.69-25.84Q21.68-24.64 23.53-23.48Q25.39-22.31 26.23-21.73ZM38.85-9.43L38.85-14.42L14.36-14.42L14.36-9.43L38.85-9.43ZM14.36-6.36L14.36-1.11L38.85-1.11L38.85-6.36L14.36-6.36ZM14.36 4.08L10.49 4.08L10.49-17.65L42.82-17.65L42.82 3.98L38.85 3.98L38.85 2.12L14.36 2.12L14.36 4.08ZM32.54-25.28L43.46-25.28L43.46-36.52L32.54-36.52L32.54-25.28ZM28.83-21.68L28.83-40.07L47.33-40.07L47.33-21.68L28.83-21.68Z" transform="translate(0 205.64) " fill="rgb(255, 255, 255)" stroke="rgb(255, 255, 255)" stroke-width="1.767" data-glyph-w="56" data-glyph-h="53" data-glyph-ascender="46.64" data-glyph-descender="-6.359999999999999"/><path d="M39.27-25.81L35.56-25.81L35.56-28.57L26.55-28.57L26.55-31.16L35.56-31.16L35.56-33.81L28.36-33.81L28.36-36.41L35.56-36.41L35.56-38.95L27.14-38.95L27.14-41.55L35.56-41.55L35.56-44.31L39.27-44.31L39.27-41.55L48.07-41.55L48.07-38.95L39.27-38.95L39.27-36.41L47.22-36.41L47.22-33.81L39.27-33.81L39.27-31.16L49.02-31.16L49.02-28.57L39.27-28.57L39.27-25.81ZM7.84-25.02L44.41-25.02L44.41-10.60L7.53-10.60L7.53-13.36L40.55-13.36L40.55-16.59L9.49-16.59L9.49-19.19L40.55-19.19L40.55-22.26L7.84-22.26L7.84-25.02ZM22.74-8.37L22.74-8.37L25.12-10.39Q27.08-9.28 29.07-7.79Q31.06-6.31 32.22-4.93L32.22-4.93L29.68-2.70Q28.57-4.03 26.66-5.59Q24.75-7.15 22.74-8.37ZM16.43-25.81L12.77-25.81L12.77-28.67L3.66-28.67L3.66-31.27L12.77-31.27L12.77-33.81L5.51-33.81L5.51-36.41L12.77-36.41L12.77-38.95L4.29-38.95L4.29-41.55L12.77-41.55L12.77-44.31L16.43-44.31L16.43-41.55L23.90-41.55L23.90-38.95L16.43-38.95L16.43-36.41L23.16-36.41L23.16-33.81L16.43-33.81L16.43-31.27L24.59-31.27L24.59-28.67L16.43-28.67L16.43-25.81ZM7.21 2.70L7.21 2.70L3.82 0.79Q5.25-1.01 6.44-3.39Q7.63-5.78 8.37-7.95L8.37-7.95L11.66-6.57Q10.87-4.29 9.75-1.75Q8.64 0.79 7.21 2.70ZM22.58 0L22.58 0L33.60 0Q35.46 0 36.01-0.90Q36.57-1.80 36.73-5.04L36.73-5.04Q37.42-4.61 38.40-4.24Q39.38-3.87 40.23-3.76L40.23-3.76Q39.91 0.42 38.61 1.88Q37.31 3.34 33.87 3.34L33.87 3.34L22.37 3.34Q17.97 3.34 16.46 2.36Q14.95 1.38 14.95-1.48L14.95-1.48L14.95-8.37L18.81-8.37L18.81-1.54Q18.81-0.53 19.48-0.27Q20.14 0 22.58 0ZM40.92-7.37L40.92-7.37L44.47-8.43Q46.22-6.15 47.78-3.47Q49.34-0.79 50.09 1.32L50.09 1.32L46.38 2.54Q45.63 0.42 44.12-2.28Q42.61-4.98 40.92-7.37Z" transform="translate(56 205.64) " fill="rgb(255, 255, 255)" stroke="rgb(255, 255, 255)" stroke-width="1.767" data-glyph-w="56" data-glyph-h="53" data-glyph-ascender="46.64" data-glyph-descender="-6.359999999999999"/><path d="M23.53-43.35L23.53-43.35L26.82-41.87Q26.77-41.76 26.66-41.66L26.66-41.66Q24.33-37.89 22.10-35.09L22.10-35.09L19.56-36.30Q20.62-37.79 21.73-39.75Q22.84-41.71 23.53-43.35ZM11.13-36.20L11.13-36.20L8.11-34.93Q7.74-36.36 6.84-38.27Q5.94-40.17 4.82-41.87L4.82-41.87L7.68-43.04Q8.85-41.45 9.78-39.59Q10.71-37.74 11.13-36.20ZM17.38-21.36L13.73-21.36L13.73-27.77Q9.49-22.84 4.40-20.03L4.40-20.03Q4.08-20.72 3.47-21.57Q2.86-22.42 2.28-23.00L2.28-23.00Q8.21-25.76 12.51-31.27L12.51-31.27L2.81-31.27L2.81-34.56L13.73-34.56L13.73-44.36L17.38-44.36L17.38-34.56L28.20-34.56L28.20-31.27L18.23-31.27Q20.41-30.00 23.00-28.33Q25.60-26.66 26.66-25.86L26.66-25.86L24.49-23.00Q23.43-24.01 21.41-25.60Q19.40-27.19 17.38-28.62L17.38-28.62L17.38-21.36ZM21.78-13.78L21.78-13.78L13.20-13.78Q11.98-11.50 10.87-9.59L10.87-9.59Q13.89-8.27 16.85-6.78L16.85-6.78Q19.98-9.65 21.78-13.78ZM24.38-2.38L24.38-2.38L21.94 0.21Q20.09-1.22 17.33-2.76L17.33-2.76Q11.61 1.75 4.24 3.60L4.24 3.60Q3.92 2.92 3.42 2.04Q2.92 1.17 2.38 0.58L2.38 0.58Q8.90-0.85 14.15-4.50L14.15-4.50Q10.07-6.68 6.04-8.16L6.04-8.16Q7.74-10.60 9.43-13.78L9.43-13.78L3.92-13.78L3.92-17.12L11.08-17.12Q11.87-18.87 12.46-20.51L12.46-20.51L15.95-19.88Q15.74-19.34 15.53-18.81L15.53-18.81Q15.21-18.02 14.84-17.12L14.84-17.12L23.48-17.12L24.06-17.28L26.29-16.38Q24.17-9.59 19.93-5.14L19.93-5.14Q22.58-3.71 24.38-2.38ZM42.77-30.47L42.77-30.47L34.29-30.47Q35.77-21.78 38.80-14.63L38.80-14.63Q41.60-21.31 42.77-30.47ZM50.03-34.13L50.03-30.47L46.53-30.47Q44.84-18.71 40.76-10.55L40.76-10.55Q44.78-3.13 51.30 0.53L51.30 0.53Q50.62 1.11 49.90 1.96Q49.18 2.81 48.71 3.60L48.71 3.60Q42.61-0.21 38.69-7.00L38.69-7.00Q34.13-0.11 26.13 4.24L26.13 4.24Q25.81 3.55 25.15 2.60Q24.49 1.64 23.96 1.06L23.96 1.06Q32.44-3.13 36.78-10.65L36.78-10.65Q33.81-16.91 32.12-24.80L32.12-24.80Q30.53-20.88 28.51-17.86L28.51-17.86Q27.98-18.39 27.11-19.11Q26.23-19.82 25.55-20.25L25.55-20.25Q28.57-24.54 30.45-30.71Q32.33-36.89 33.28-43.83L33.28-43.83L36.89-43.30Q36.25-38.58 35.09-34.13L35.09-34.13L50.03-34.13Z" transform="translate(112 205.64) " fill="rgb(255, 255, 255)" stroke="rgb(255, 255, 255)" stroke-width="1.767" data-glyph-w="56" data-glyph-h="53" data-glyph-ascender="46.64" data-glyph-descender="-6.359999999999999"/><path d="M18.18-21.31L18.71-17.70L12.67-15.74L12.67-0.85Q12.67 2.38 10.87 2.97L10.87 2.97Q9.17 3.87 4.29 3.71L4.29 3.71Q4.19 2.97 3.87 1.93Q3.55 0.90 3.13 0.05L3.13 0.05Q4.88 0.11 6.28 0.11Q7.68 0.11 8.11 0.11L8.11 0.11Q8.59 0.11 8.80-0.11Q9.01-0.32 9.01-0.90L9.01-0.90L9.01-14.52Q6.09-13.57 3.55-12.83L3.55-12.83Q3.13-12.67 2.76-12.56L2.76-12.56L1.80-16.32Q1.96-16.38 2.12-16.43L2.12-16.43Q5.04-17.28 9.01-18.44L9.01-18.44L9.01-30.05L2.44-30.05L2.44-33.71L9.01-33.71L9.01-44.31L12.67-44.31L12.67-33.71L18.66-33.71L18.66-30.05L12.67-30.05L12.67-19.56L18.18-21.31ZM24.75-22.58L24.75-22.58L35.03-22.58L35.03-28.41L24.80-28.41L24.80-26.13Q24.80-24.38 24.75-22.58ZM45.00-31.85L45.00-38.58L24.80-38.58L24.80-31.85L45.00-31.85ZM29.10-1.32L45.37-1.32L45.37-9.33L29.10-9.33L29.10-1.32ZM50.56-22.58L50.56-19.19L38.80-19.19L38.80-12.67L48.97-12.67L48.97 3.92L45.37 3.92L45.37 1.96L29.10 1.96L29.10 4.13L25.65 4.13L25.65-12.67L35.03-12.67L35.03-19.19L24.59-19.19Q24.27-13.20 22.90-7.05Q21.52-0.90 18.23 4.08L18.23 4.08Q17.70 3.50 16.75 2.84Q15.79 2.17 15.05 1.85L15.05 1.85Q17.75-2.28 19.03-7.15Q20.30-12.03 20.64-16.99Q20.99-21.94 20.99-26.13L20.99-26.13L20.99-42.03L48.76-42.03L48.76-28.41L38.80-28.41L38.80-22.58L50.56-22.58Z" transform="translate(168 205.64) " fill="rgb(255, 255, 255)" stroke="rgb(255, 255, 255)" stroke-width="1.767" data-glyph-w="56" data-glyph-h="53" data-glyph-ascender="46.64" data-glyph-descender="-6.359999999999999"/><path d="M28.41-31.06L28.41-17.01L43.62-17.01L43.62-31.06L28.41-31.06ZM9.17-31.06L9.17-17.01L24.33-17.01L24.33-31.06L9.17-31.06ZM28.41-44.36L28.41-34.93L47.65-34.93L47.65-10.12L43.62-10.12L43.62-13.14L28.41-13.14L28.41 4.03L24.33 4.03L24.33-13.14L9.17-13.14L9.17-9.86L5.30-9.86L5.30-34.93L24.33-34.93L24.33-44.36L28.41-44.36Z" transform="translate(224 205.64) " fill="rgb(255, 255, 255)" stroke="rgb(255, 255, 255)" stroke-width="1.767" data-glyph-w="56" data-glyph-h="53" data-glyph-ascender="46.64" data-glyph-descender="-6.359999999999999"/><path d="M18.23-39.91L18.23-39.91L20.83-42.51Q24.70-39.86 28.70-36.62Q32.70-33.39 35.09-30.79L35.09-30.79L32.28-27.88Q29.95-30.47 26.02-33.81Q22.10-37.15 18.23-39.91ZM40.23-25.65L40.23-25.65L43.88-27.08Q46.22-22.21 48.15-16.83Q50.09-11.45 50.99-7.21L50.99-7.21L47.12-5.67Q46.27-9.91 44.39-15.37Q42.51-20.83 40.23-25.65ZM7.31-25.70L7.31-25.70L11.13-24.96Q10.49-20.14 9.30-14.36Q8.11-8.59 6.47-4.19L6.47-4.19L2.54-5.83Q4.29-10.02 5.51-15.45Q6.73-20.88 7.31-25.70ZM15.74-3.60L15.74-29.68L19.72-29.68L19.72-3.55Q19.72-1.75 20.41-1.19Q21.09-0.64 23.37-0.64L23.37-0.64L33.50-0.64Q35.99-0.64 36.73-2.78Q37.47-4.93 37.68-11.61L37.68-11.61Q38.42-11.02 39.48-10.57Q40.55-10.12 41.39-9.86L41.39-9.86Q41.07-2.49 39.59 0.29Q38.11 3.07 33.71 3.07L33.71 3.07L23.05 3.07Q18.76 3.07 17.25 1.70Q15.74 0.32 15.74-3.60L15.74-3.60Z" transform="translate(280 205.64) " fill="rgb(255, 255, 255)" stroke="rgb(255, 255, 255)" stroke-width="1.767" data-glyph-w="56" data-glyph-h="53" data-glyph-ascender="46.64" data-glyph-descender="-6.359999999999999"/></g></svg></g></g><g id="shape_gOSQVackqB" transform="translate(180.1993049503743,-32.55386637727483) rotate(0,240.87314745182007,280.72) scale(1,1)" filter="" style="cursor: move; opacity: 1;"><g><svg xmlns="http://www.w3.org/2000/svg" xmlns:xlink="http://www.w3.org/1999/xlink" version="1.1" width="641.7462949036401" height="561.44" viewBox="0 0 641.7462949036401 561.44" data-parent="shape_gOSQVackqB"><g data-width="270.88" transform="translate(105.43314745182008, 0)"><path d="M4.80-23.36L4.80-53.36L16.08-53.36L16.08-23.36Q16.32-17.68 16.56-15.84L16.56-15.84Q17.12-12.16 20.08-10.84Q23.04-9.52 30.48-9.52L30.48-9.52L41.36-9.52L41.36 0L29.28 0Q20.72 0 16.88-0.96L16.88-0.96Q8.08-3.52 5.68-12.16L5.68-12.16Q4.80-15.52 4.80-23.36L4.80-23.36Z" transform="translate(0 308.72) " fill="rgb(31, 134, 230)" stroke="rgb(31, 134, 230)" stroke-width="0.133" data-glyph-w="45.56" data-glyph-h="80" data-glyph-ascender="68.72" data-glyph-descender="-11.28"/><path d="M16.80 0L5.44 0L5.44-53.36L16.80-53.36L16.80 0Z" transform="translate(45.56 308.72) " fill="rgb(31, 134, 230)" stroke="rgb(31, 134, 230)" stroke-width="0.133" data-glyph-w="25.16" data-glyph-h="80" data-glyph-ascender="68.72" data-glyph-descender="-11.28"/><path d="M38.08 0L16.32-39.12L16.32 0L5.44 0L5.44-53.36L20-53.36L41.20-13.60L41.20-53.36L52-53.36L52 0L38.08 0Z" transform="translate(70.72 308.72) " fill="rgb(31, 134, 230)" stroke="rgb(31, 134, 230)" stroke-width="0.133" data-glyph-w="60.44" data-glyph-h="80" data-glyph-ascender="68.72" data-glyph-descender="-11.28"/><path d="M5.44-53.36L16.80-53.36L16.80 0L5.44 0L5.44-53.36ZM36.56 0L17.20-26.96L37.60-53.36L52.56-53.36L30.24-26.96L51.52 0L36.56 0Z" transform="translate(131.16 308.72) " fill="rgb(31, 134, 230)" stroke="rgb(31, 134, 230)" stroke-width="0.133" data-glyph-w="55.72" data-glyph-h="80" data-glyph-ascender="68.72" data-glyph-descender="-11.28"/><path d="M34.96 0L5.44 0L5.44-53.36L35.60-53.36Q42.72-53.36 45.92-51.68L45.92-51.68Q49.68-49.84 51.60-45.52L51.60-45.52Q52.96-42.56 52.96-39.36L52.96-39.36Q52.96-35.20 50.76-31.60Q48.56-28 45.20-26.64L45.20-26.64Q52.96-23.12 52.96-14.08L52.96-14.08Q52.96-8.88 50.48-5.36L50.48-5.36Q48.32-2.32 44.96-1.16Q41.60 0 34.96 0L34.96 0ZM16.80-43.84L16.80-31.44L32.24-31.44Q34.72-31.44 35.80-31.68Q36.88-31.92 37.92-32.72L37.92-32.72Q40.40-34.64 40.40-38L40.40-38Q40.40-41.20 38.08-42.72L38.08-42.72Q36.40-43.84 32.48-43.84L32.48-43.84L16.80-43.84ZM16.80-21.92L16.80-9.52L32.24-9.52Q34.72-9.52 35.84-9.76Q36.96-10 37.92-10.80L37.92-10.80Q40.40-12.72 40.40-16.08L40.40-16.08Q40.40-19.28 38.08-20.80L38.08-20.80Q36.40-21.92 32.48-21.92L32.48-21.92L16.80-21.92Z" transform="translate(186.88 308.72) " fill="rgb(31, 134, 230)" stroke="rgb(31, 134, 230)" stroke-width="0.133" data-glyph-w="58.84" data-glyph-h="80" data-glyph-ascender="68.72" data-glyph-descender="-11.28"/><path d="M16.80 0L5.44 0L5.44-53.36L16.80-53.36L16.80 0Z" transform="translate(245.72 308.72) " fill="rgb(31, 134, 230)" stroke="rgb(31, 134, 230)" stroke-width="0.133" data-glyph-w="25.16" data-glyph-h="80" data-glyph-ascender="68.72" data-glyph-descender="-11.28"/></g></svg></g></g><g id="shape_wrRrE3Nh2m" transform="translate(474.9455998540145,-88.2978663772748) rotate(0,187.58172307145213,336.464) scale(1,1)" filter="" style="cursor: move; opacity: 1;"><g><svg xmlns="http://www.w3.org/2000/svg" xmlns:xlink="http://www.w3.org/1999/xlink" version="1.1" width="567.1634461429043" height="672.928" viewBox="0 0 567.1634461429043 672.928" data-parent="shape_wrRrE3Nh2m"><g data-width="176.64000000000001" transform="translate(99.26172307145212, 0)"><path d="M17.09-29.38L24.67-17.76L9.89-17.76L2.30-29.38L17.09-29.38ZM24.38 0L2.02 0L35.71-25.34L35.71-32.35L5.18-32.35L5.18-41.86L69.79-41.86L69.79-47.04L5.18-47.04L5.18-54.43L69.79-54.43L69.79-56.74Q69.79-57.98 68.93-58.85Q68.06-59.71 66.82-59.71L66.82-59.71L5.18-59.71L5.18-69.22L72.58-69.22Q74.78-69.22 76.70-68.40Q78.62-67.58 80.06-66.14Q81.50-64.70 82.32-62.78Q83.14-60.86 83.14-58.66L83.14-58.66L83.14-41.86L83.14-39.94L83.14-32.35L52.99-32.35L52.99-21.22L51.36-19.87L61.92-19.87L63.84-18.34L71.14-29.38L85.92-29.38L78.24-17.76L64.51-17.76L86.30 0L65.09 0L45.70-15.74L24.38 0Z" transform="translate(0 370.464) " fill="#1f86e6" stroke="#1f86e6" stroke-width="0.16" data-glyph-w="88.32000000000001" data-glyph-h="96" data-glyph-ascender="82.464" data-glyph-descender="-13.536"/><path d="M60.86-69.22L57.89-61.92L86.30-61.92L86.30-9.31Q86.30-5.38 83.57-2.64Q80.83 0.10 76.90 0.10L76.90 0.10L38.40 0.10L38.40-61.92L44.16-61.92L47.14-69.22L60.86-69.22ZM51.36-8.45L70.75-8.45Q71.81-8.45 72.62-9.22Q73.44-9.98 73.44-11.14L73.44-11.14L73.44-26.69L51.36-26.69L51.36-8.45ZM73.44-35.42L73.44-53.47L51.36-53.47L51.36-35.42L73.44-35.42ZM13.63-69.12L23.62-69.12L23.62-64.42L34.85-64.42L34.85-55.01L23.62-55.01L23.62 0L13.63 0L13.63-55.01L2.02-55.01L2.02-64.42L13.63-64.42L13.63-69.12ZM25.92-52.03L33.41-52.03L35.71-0.19L28.32-0.19L25.92-52.03ZM9.41-0.19L2.02-0.19L4.42-52.03L11.81-52.03L9.41-0.19Z" transform="translate(88.32000000000001 370.464) " fill="#1f86e6" stroke="#1f86e6" stroke-width="0.16" data-glyph-w="88.32000000000001" data-glyph-h="96" data-glyph-ascender="82.464" data-glyph-descender="-13.536"/></g></svg></g></g>  <!----></svg>
